<svg xmlns="http://www.w3.org/2000/svg" style="display: none;"><symbol id="makeup" viewBox="0 0 512.002 512.002"><title>makeup</title><g> <g> <path d="M212.731,295.59c-3.905-3.904-10.235-3.904-14.141,0c-10.436,10.438-27.415,10.436-37.851,0 c-3.906-3.904-10.236-3.904-14.143,0c-3.905,3.905-3.905,10.237,0,14.143c9.117,9.116,21.093,13.675,33.068,13.675 c11.975,0,23.95-4.559,33.067-13.675C216.637,305.828,216.637,299.496,212.731,295.59z"/> </g> </g><g> <g> <path d="M365.404,295.59c-3.905-3.904-10.235-3.904-14.141,0c-10.435,10.435-27.414,10.437-37.851,0 c-3.906-3.904-10.236-3.904-14.143,0c-3.905,3.905-3.905,10.237,0,14.143c9.117,9.116,21.093,13.675,33.067,13.675 c11.976,0,23.951-4.559,33.068-13.675C369.31,305.828,369.31,299.496,365.404,295.59z"/> </g> </g><g> <g> <path d="M469.011,286.667c-0.04-22.334-17.115-40.762-38.883-42.966V228c0-58.413-28.934-110.194-73.221-141.768 C349.258,36.76,306.713,0,256.129,0C205.546,0,163,36.76,155.349,86.232c-44.287,31.574-73.22,83.355-73.22,141.768v15.681 c-21.888,2.086-39.096,20.565-39.137,42.985l-0.046,25.33c-0.021,11.571,4.47,22.455,12.645,30.645 c8.176,8.189,19.051,12.7,30.622,12.7h4.845c21.966,75.896,82.733,136.462,162.536,156.362c0.795,0.198,1.607,0.297,2.42,0.297 c0.81,0,1.62-0.099,2.411-0.295l0.167-0.042c18.297-4.557,35.956-11.372,52.486-20.259c4.864-2.614,6.688-8.678,4.072-13.543 c-2.614-4.864-8.675-6.687-13.543-4.072c-14.385,7.733-29.713,13.747-45.589,17.891c-90.734-23.777-153.89-105.436-153.89-199.45 v-12.766l4.316-0.977c56.932-12.885,111.762-36.149,160.805-68.006c33.711,43.927,85.976,69.88,141.729,69.88h1.15v11.812 c0,33.929-8.462,67.626-24.472,97.451c-2.612,4.866-0.785,10.929,4.081,13.54c1.505,0.809,3.124,1.191,4.721,1.191 c3.565,0,7.016-1.911,8.819-5.272c7.469-13.914,13.424-28.6,17.822-43.741h4.691c11.571,0,22.446-4.511,30.622-12.7 c8.175-8.189,12.665-19.073,12.645-30.646L469.011,286.667z M86.213,335.341L86.213,335.341c-6.223,0-12.07-2.426-16.467-6.829 c-4.396-4.404-6.812-10.257-6.8-16.479l0.046-25.329c0.021-11.397,8.292-20.895,19.137-22.85v28.376 c0,14.694,1.408,29.112,4.107,43.111H86.213z M256.129,20c34.348,0,64.073,21.084,76.189,51.592 C309.294,60.332,283.439,54,256.129,54s-53.166,6.332-76.189,17.593C192.056,41.084,221.781,20,256.129,20z M410.129,256v4.36 h-1.15c-49.121,0-95.2-22.677-125.158-61.127c6.923-4.909,13.722-9.987,20.372-15.245c4.332-3.426,5.067-9.715,1.643-14.047 c-3.426-4.331-9.715-5.066-14.047-1.643c-55.309,43.731-120.89,75.079-189.659,90.659V256v-28 c-0.001-84.916,69.083-154,153.999-154s154,69.084,154,154V256z M442.258,328.511c-4.362,4.369-10.152,6.788-16.32,6.825 c2.762-14.194,4.191-28.659,4.191-43.165v-28.273c10.72,2.057,18.862,11.497,18.883,22.805l0.046,25.328 C449.07,318.255,446.655,324.107,442.258,328.511z"/> </g> </g><g> <g> <path d="M332.411,146.561c-3.68-4.118-10.002-4.475-14.12-0.794l-0.138,0.123c-4.118,3.681-4.474,10.002-0.794,14.12 c1.976,2.211,4.712,3.337,7.461,3.337c2.371,0,4.752-0.839,6.659-2.543l0.138-0.123C335.735,157,336.091,150.679,332.411,146.561z "/> </g> </g><g> <g> <path d="M435.471,469.198l-55.246-55.244l-21.245-55.543c-3.281-8.575-12.211-13.605-21.251-11.953 c-37.702,6.885-67.658,36.841-74.536,74.512l-0.043,0.235c-1.604,8.783,3.219,17.64,11.469,21.057l54.514,22.583l44.228,44.228 c1.953,1.952,4.512,2.929,7.071,2.929s5.118-0.977,7.071-2.929c3.905-3.905,3.905-10.237,0-14.143l-38.562-38.562l22.707-22.707 l49.68,49.68c3.906,3.904,10.236,3.904,14.143,0C439.376,479.436,439.376,473.104,435.471,469.198z M332.452,444.571 l-49.493-20.503c5.533-29.071,28.574-52.174,57.615-57.796l19.416,50.761L332.452,444.571z"/> </g> </g><g> <g> <path d="M461.202,494.93c-1.86-1.861-4.44-2.93-7.07-2.93s-5.21,1.069-7.08,2.93c-1.86,1.86-2.92,4.44-2.92,7.07 s1.06,5.21,2.92,7.069c1.87,1.86,4.45,2.931,7.08,2.931c2.63,0,5.21-1.07,7.07-2.931c1.859-1.859,2.93-4.439,2.93-7.069 S463.062,496.79,461.202,494.93z"/> </g> </g></symbol><symbol id="eye" viewBox="0 0 511.998 511.998"><title>eye</title><g> <g> <path d="M510.264,242.912l-80.29-117.926c-16.791-24.66-41.714-43.157-70.181-52.084c-28.468-8.925-59.49-7.973-87.355,2.686 l-73.313,28.041c-5.159,1.973-7.74,7.753-5.768,12.911c1.973,5.158,7.754,7.737,12.912,5.768l73.313-28.041 c49.182-18.808,104.226-1.55,133.861,41.975l49.315,72.43l-88.5-62.331c-18.548-13.064-42.442-16.492-63.917-9.168L44.058,227.986 c-9.268,3.166-19.456-1.783-22.706-11.022c-4.16-11.825,1.753-24.598,13.462-29.076l91.624-35.045 c5.159-1.973,7.74-7.753,5.768-12.911c-1.974-5.159-7.756-7.738-12.912-5.768L27.669,169.21 C5.766,177.587-5.295,201.478,2.485,223.6c6.874,19.543,28.418,30.004,48.028,23.314l266.285-90.812 c15.435-5.265,32.611-2.801,45.946,6.59l133.499,94.024c1.738,1.224,3.751,1.824,5.755,1.824c2.552,0,5.088-0.974,7.017-2.873 C512.457,252.276,512.984,246.907,510.264,242.912z"/> </g> </g><g> <g> <path d="M172.337,120.219c-1.86-1.87-4.44-2.93-7.069-2.93c-2.63,0-5.21,1.06-7.069,2.93c-1.86,1.86-2.93,4.431-2.93,7.069 c0,2.63,1.07,5.21,2.93,7.069c1.86,1.86,4.44,2.93,7.069,2.93c2.63,0,5.21-1.07,7.069-2.93c1.86-1.86,2.93-4.44,2.93-7.069 C175.267,124.648,174.197,122.079,172.337,120.219z"/> </g> </g><g> <g> <path d="M431.455,338.699l-0.379-0.117c-12.038-3.736-22.399-11.22-29.706-21.331c7.503-6.046,14.737-12.514,21.647-19.424 c3.905-3.905,3.905-10.236,0-14.142c-3.904-3.904-10.236-3.904-14.141,0c-39.216,39.217-89.308,63.603-143.474,70.352 c-0.363,0.025-0.721,0.067-1.073,0.129c-9.855,1.185-19.841,1.792-29.921,1.793c-0.005,0-0.01-0.001-0.016-0.001 c-0.006,0-0.01,0.001-0.016,0.001c-10.08,0-20.066-0.608-29.922-1.793c-0.352-0.063-0.709-0.105-1.073-0.129 c-54.166-6.749-104.258-31.135-143.474-70.352c-3.905-3.903-10.236-3.904-14.141,0c-3.905,3.905-3.905,10.236,0,14.142 c6.91,6.91,14.144,13.379,21.647,19.424c-7.306,10.111-17.665,17.596-29.693,21.327l-0.392,0.121 c-5.277,1.63-8.233,7.228-6.603,12.505c1.326,4.294,5.281,7.051,9.55,7.051c0.978,0,1.972-0.145,2.954-0.448l0.405-0.125 c16.108-4.999,29.982-14.988,39.806-28.477c3.42,2.357,6.887,4.631,10.402,6.818c-4.883,15.322-16.312,27.703-31.471,33.717 l-3.096,1.227c-5.134,2.036-7.644,7.848-5.609,12.981c1.556,3.925,5.318,6.315,9.297,6.315c1.227,0,2.474-0.228,3.684-0.707 l3.099-1.229c19.451-7.717,34.442-23.074,41.769-42.233c3.841,1.998,7.726,3.899,11.655,5.703 c-1.146,17.147-11.06,32.453-26.451,40.483l-0.596,0.311c-4.897,2.553-6.797,8.592-4.245,13.489 c1.783,3.421,5.267,5.379,8.874,5.379c1.557,0,3.138-0.365,4.614-1.135l0.599-0.312c19.636-10.245,32.918-28.919,36.399-50.301 c4.241,1.555,8.521,3.005,12.842,4.342c-0.572,15.861-6.722,30.936-17.489,42.682c-3.732,4.071-3.457,10.395,0.615,14.128 c1.92,1.76,4.34,2.628,6.753,2.628c2.706,0,5.403-1.092,7.374-3.243c12.958-14.137,20.776-31.984,22.453-50.916 c5.747,1.302,11.552,2.405,17.404,3.326c-1.296,15.361-6.01,30.299-13.852,43.645l-1.346,2.291 c-2.797,4.762-1.204,10.889,3.558,13.687c1.591,0.934,3.334,1.379,5.056,1.379c3.43,0,6.768-1.767,8.631-4.938l1.345-2.289 c9.242-15.728,14.846-33.31,16.476-51.402c4.052,0.332,8.122,0.571,12.208,0.721v59.408c0,5.522,4.477,9.999,9.999,9.999 s9.999-4.478,9.999-9.999v-59.408c4.087-0.15,8.156-0.389,12.208-0.721c1.63,18.09,7.233,35.674,16.475,51.4l1.346,2.291 c1.863,3.172,5.202,4.938,8.631,4.938c1.721,0,3.465-0.445,5.056-1.379c4.762-2.798,6.354-8.925,3.558-13.687l-1.347-2.293 c-7.841-13.344-12.555-28.284-13.851-43.643c5.852-0.922,11.657-2.024,17.404-3.326c1.676,18.931,9.495,36.779,22.453,50.916 c1.972,2.151,4.668,3.243,7.374,3.243c2.414,0,4.834-0.869,6.753-2.628c4.071-3.732,4.347-10.057,0.615-14.128 c-10.766-11.746-16.917-26.823-17.489-42.682c4.321-1.337,8.601-2.786,12.842-4.342c3.481,21.383,16.764,40.057,36.402,50.302 l0.596,0.311c1.477,0.77,3.057,1.135,4.614,1.135c3.608,0,7.091-1.959,8.874-5.379c2.553-4.897,0.653-10.937-4.245-13.489 l-0.593-0.31c-15.394-8.03-25.308-23.337-26.454-40.484c3.93-1.804,7.815-3.705,11.655-5.703 c7.326,19.159,22.317,34.516,41.77,42.234l3.098,1.229c1.21,0.479,2.457,0.707,3.684,0.707c3.979,0,7.741-2.393,9.297-6.315 c2.036-5.134-0.475-10.945-5.609-12.981l-3.096-1.228c-15.16-6.015-26.59-18.396-31.472-33.718 c3.515-2.187,6.982-4.461,10.402-6.818c9.824,13.49,23.699,23.479,39.819,28.481l0.392,0.121c0.983,0.304,1.977,0.448,2.954,0.448 c4.27,0,8.224-2.758,9.55-7.051C439.688,345.927,436.733,340.329,431.455,338.699z"/> </g> </g></symbol><symbol id="fashion" viewBox="0 0 512 512"><title>fashion</title><g> <g> <path d="M420.716,297.467c-1.249-9.935-6.814-14.182-11.265-15.995c-6.799-2.772-19.437-4.097-51.071,14.588 c2.877-11.921,1.744-24.753-3.796-36.274c10.905-13.613,23.343-32.327,21.606-46.221c-1.257-10.055-6.873-14.341-11.365-16.166 c-25.623-10.418-83.822,36.339-105.472,53.646c0.71-7.491-0.284-15.173-3.11-22.427c10.633-13.011,23.608-31.805,21.876-45.664 c-1.275-10.202-7.43-14.149-10.986-15.595c-14.487-5.89-37.978,7.069-54.385,17.329c-24.73,15.463-24.09,16.119-194.655,152.984 C6.595,346.9,0,360.649,0,375.392c0,16.181,0,90.44,0,106.878C0,498.663,13.337,512,29.73,512H45.8c4.143,0,7.5-3.357,7.5-7.5 c0-4.143-3.357-7.5-7.5-7.5H29.73c-8.121,0-14.729-6.607-14.729-14.729v-15.909l209.291-167.94 c6.434,36.15,46.878,37.856,70.027,20.886c14.526-10.662,35.649-31.529,49.185-46.56c4.113,14.813-0.775,31.201-13.283,41.237 c-0.135,0.108-31.247,25.071-228.135,183.015H80.802c-4.143,0-7.5,3.357-7.5,7.5s3.357,7.5,7.5,7.5c34.695,0,124.242,0,158.935,0 c13.874,0,27.475-4.782,38.296-13.466l52.622-42.227c3.23-2.593,3.748-7.313,1.155-10.545c-2.593-3.23-7.313-3.747-10.545-1.155 l-52.621,42.227c-8.169,6.555-18.436,10.165-28.908,10.165H126.115l144.038-115.58c1.319,7.159,3.735,12.569,6.439,16.408 c11.281,16.056,37.696,18.112,56.731,7.888c11.49-6.178,33.133-27.11,42.176-36.269c4.228,15.312-0.861,32.335-13.706,42.642 l-13.228,10.615c-3.23,2.593-3.747,7.313-1.155,10.545c2.592,3.229,7.312,3.746,10.545,1.155l13.227-10.615 c19.881-15.953,26.176-43.668,15.816-66.464C396.07,347.347,423.224,317.417,420.716,297.467z M220.806,197.342 c30.11-18.81,39.17-16.701,40.679-16.085c0.411,0.167,1.373,0.558,1.748,3.559c2.397,19.155-56.869,76.662-73.057,87.372 c-13.844,8.94-31.739,6.638-37.536-1.234c-4.228-5.737-4.303-14.226-4.658-18.274 C179.583,227.373,197.139,212.126,220.806,197.342z M226.211,277.64c-12.562,10.062-199.256,159.592-211.21,169.166v-71.414 c0-10.171,4.549-19.653,12.481-26.019l106.567-85.512c2.785,14.584,10.004,22.222,20.62,26.337 c9.895,3.835,22.179,4.108,33.847-0.365c16.169-6.202,44.232-34.921,55.823-47.571 C247.182,265.563,227.851,275.629,226.211,277.64z M285.559,307.129c-15.235,11.226-36.826,9.193-43.142-1.497 c-3.014-5.098-4.059-12.557-4.113-18.454c32.264-25.962,52.332-43.164,77.362-58.801c32.094-20.05,41.875-17.745,43.512-17.081 c0.551,0.224,1.697,0.691,2.127,4.129C363.893,236.128,302.761,294.486,285.559,307.129z M328.907,390.906 c-12.437,7.997-33.589,8.893-40.618-2.595c-3.201-5.275-4.071-13.095-4.156-18.111c40.472-32.333,52.695-43.183,76.603-58.032 c31.782-19.74,41.442-17.464,43.056-16.805c0.527,0.215,1.626,0.663,2.042,3.975C408.427,319.991,344.715,380.666,328.907,390.906 z"/> </g> </g><g> <g> <path d="M504.5,40.452c4.143,0,7.5-3.357,7.5-7.5V20.155C512,9.042,502.958,0,491.845,0h-69.616 c-11.114,0-20.155,9.042-20.155,20.155v47.642c0,10.055,6.753,19.002,16.422,21.759l15.75,4.491v62.085 c0,4.555,1.411,8.786,3.815,12.283c-1.027,17.601-6.457,54.804-33.161,77.093c-7.277,6.072-7.187,17.324,0.157,23.375 c12.903,9.505,17.023,17.165,27.743,17.165c7.262,0,13.959-4.003,17.29-10.636c8.018-15.974,21.465-50.716,22.606-105.398 c3.135-3.768,5.024-8.609,5.024-13.882v-49.688c3.483,0.252,14.746,7.381,26.041-1.142c5.236-3.951,8.24-9.981,8.24-16.541V67.954 c0-4.142-3.357-7.5-7.5-7.5s-7.5,3.357-7.5,7.5v20.807c0,1.812-0.829,3.477-2.275,4.567c-3.813,2.881-6.491-0.14-22.447-4.036 c-9.724-2.773-39.722-11.327-49.668-14.163c-3.259-0.929-5.534-3.944-5.534-7.332V20.155c0-2.794,2.36-5.154,5.154-5.154h69.616 c2.794,0,5.154,2.36,5.154,5.154v12.797C496.999,37.095,500.356,40.452,504.5,40.452z M436.682,268.682 c-1.239,2.465-4.467,3.139-6.62,1.364l-15.469-12.742c-0.141-0.116-0.091-0.275-0.083-0.28 c23.219-19.379,34.56-49.391,37.835-79.454c1.672,0.279,3.442,0.362,5.094,0.251C455.312,224.853,443.734,254.635,436.682,268.682 z M449.244,98.325l13.474,3.842v53.965c0,2.028-0.905,3.846-2.328,5.081c-4.469,3.803-11.146,0.601-11.146-5.081V98.325z"/> </g> </g></symbol><symbol id="spa" viewBox="-39 1 479 479.99991"><title>spa</title><path d="m264.507812 312c-13.253906 0-24-10.746094-24-24h-16c0 22.089844 17.910157 40 40 40 22.09375 0 40-17.910156 40-40h-16c0 13.253906-10.746093 24-24 24zm0 0"/><path d="m136.507812 312c-13.253906 0-24-10.746094-24-24h-16c0 22.089844 17.910157 40 40 40 22.09375 0 40-17.910156 40-40h-16c0 13.253906-10.746093 24-24 24zm0 0"/><path d="m120.507812 0h-96c-4.417968 0-8 3.582031-8 8v22.703125c.101563 15.578125-2.359374 31.066406-7.28125 45.847656-5.777343 16.984375-8.722656 34.804688-8.71875 52.746094v157.34375c-.390624 17.410156 12.925782 32.078125 30.296876 33.359375.574218 0 1.152343.039062 1.71875.039062 5.648437-.011718 11.1875-1.539062 16.046874-4.414062.492188 73.1875 48.347657 137.617188 118.273438 159.230469 21.917969 6.859375 45.410156 6.859375 67.328125 0 69.9375-21.617188 117.800781-86.070313 118.273437-159.269531 4.863282 2.878906 10.410157 4.402343 16.0625 4.414062.570313 0 1.144532 0 1.71875-.039062 17.347657-1.289063 30.652344-15.929688 30.28125-33.320313v-157.34375c.003907-17.9375-2.941406-35.753906-8.71875-52.738281-4.921874-14.78125-7.382812-30.273438-7.28125-45.855469v-22.703125c0-4.417969-3.582031-8-8-8h-96c-4.417968 0-8 3.582031-8 8v43.054688l-4.511718 2.257812c-14.578125-23.21875-40.070313-37.316406-67.488282-37.316406-27.417968 0-52.910156 14.097656-67.488281 37.316406l-4.511719-2.257812v-43.054688c0-4.417969-3.582031-8-8-8zm-24 182.625c-7.171874 6.070312-13.792968 12.761719-19.785156 20l-12.214844 14.976562v-34.5625c.007813-2.375.953126-4.652343 2.625-6.34375l14.0625-14.0625c2.566407-2.566406 6.421876-3.335937 9.773438-1.949218 3.351562 1.386718 5.539062 4.65625 5.539062 8.285156zm240 131.269531c.210938 66.832031-43.261718 125.960938-107.113281 145.699219-18.8125 5.847656-38.960937 5.847656-57.773437 0-63.851563-19.738281-107.320313-78.867188-107.113282-145.699219v-71.039062l24.601563-30.054688c2.320313-2.847656 4.855469-5.511719 7.398437-8.175781v11.375c0 17.671875 14.328126 32 32 32 17.671876 0 32-14.328125 32-32v-49.601562c0-.222657.046876-.429688.046876-.65625 26.109374-7.492188 53.796874-7.492188 79.90625 0 0 .21875.046874.433593.046874.648437v49.609375c0 17.671875 14.328126 32 32 32 17.671876 0 32-14.328125 32-32v-11.382812c2.542969 2.664062 5.082032 5.328124 7.402344 8.175781l24.597656 30.0625zm-169.34375-169.453125c6.09375-9.132812 9.347657-19.863281 9.34375-30.839844v-4.160156c-.039062-3.730468-.453124-7.449218-1.230468-11.097656 16.679687-3.09375 33.785156-3.09375 50.464844 0-.78125 3.648438-1.195313 7.367188-1.234376 11.097656v4.160156c-.007812 10.984376 3.246094 21.726563 9.34375 30.863282.742188 1.164062 1.421876 2.371094 2.039063 3.605468-23.296875-5.25-47.46875-5.25-70.765625 0 .613281-1.246093 1.296875-2.457031 2.039062-3.628906zm169.34375 73.160156-12.214843-14.929687c-5.996094-7.25-12.613281-13.957031-19.785157-20.046875v-13.65625c0-3.628906 2.183594-6.902344 5.535157-8.292969 3.351562-1.386719 7.210937-.617187 9.777343 1.949219l14.0625 14.0625c1.675782 1.6875 2.617188 3.96875 2.625 6.34375zm-52.421874-154.402343c2.722656-1.359375 4.4375-4.152344 4.421874-7.199219v-40h80v14.703125c-.101562 17.335937 2.648438 34.566406 8.136719 51.007813 5.210938 15.324218 7.867188 31.398437 7.863281 47.585937v157.34375c.269532 8.851563-6.324218 16.414063-15.128906 17.359375-4.390625.238281-8.6875-1.339844-11.878906-4.367188-3.195312-3.027343-5-7.234374-4.992188-11.632812v-104.96875c-.015624-6.617188-2.644531-12.960938-7.3125-17.65625l-14.0625-14.0625c-7.140624-7.140625-17.882812-9.277344-27.210937-5.414062-9.332031 3.867187-15.414063 12.96875-15.414063 23.070312v47.03125c0 8.835938-7.164062 16-16 16-8.835937 0-16-7.164062-16-16v-49.601562c.007813-10.984376-3.242187-21.726563-9.34375-30.863282-4.335937-6.492187-6.652343-14.125-6.65625-21.933594v-4.160156c-.050781-15.027344 8.449219-28.777344 21.914063-35.449218zm-83.578126-31.199219c21.429688-.054688 41.445313 10.6875 53.242188 28.574219-9.582031 5.144531-17.429688 13.003906-22.5625 22.59375-20.246094-4.121094-41.113281-4.121094-61.359375 0-5.128906-9.589844-12.980469-17.449219-22.558594-22.59375 11.796875-17.886719 31.808594-28.628907 53.238281-28.574219zm-61.910156 41.992188c13.460938 6.671874 21.960938 20.421874 21.910156 35.449218v4.160156c.003907 7.824219-2.3125 15.472657-6.65625 21.984376-6.089843 9.121093-9.339843 19.84375-9.34375 30.8125v49.601562c0 8.835938-7.164062 16-16 16-8.835937 0-16-7.164062-16-16v-47.03125c0-10.101562-6.082031-19.203125-15.414062-23.070312-9.328125-3.863282-20.070312-1.726563-27.210938 5.414062l-14.0625 14.0625c-4.667968 4.695312-7.292968 11.039062-7.3125 17.65625v104.96875c.007813 4.398438-1.796874 8.605469-4.988281 11.632812-3.195312 3.027344-7.492187 4.605469-11.882812 4.367188-8.804688-.945312-15.394531-8.507812-15.128907-17.359375v-157.34375c-.003906-16.1875 2.652344-32.265625 7.863282-47.59375 5.492187-16.4375 8.238281-33.667969 8.136718-51v-14.703125h80v40c0 3.03125 1.710938 5.804688 4.425782 7.160156zm0 0"/></symbol><symbol id="wax" viewBox="0 0 480 480"><title>wax</title><path d="m458.078 224c-9.46-.001-17.864 6.04-20.878 15.008l-4.2 12.68-44.031 44.031-67.6-5.64-4.015-12.517-15.235 4.876 10.266 32.015c.597 1.843 1.84 3.407 3.5 4.406l40 24c1.242.748 2.665 1.143 4.115 1.141h16c4.417.003 7.997 3.583 8 8 .004 2.157-.884 4.22-2.453 5.7-1.46 1.488-3.462 2.319-5.547 2.3h-98.148l-54.227-170.43c-1.344-4.209-5.845-6.531-10.054-5.188-1.474.471-2.779 1.358-3.759 2.556l-141.601 173.062h-52.211v-84.461l154.9-140.812c19.826-18.054 49.61-19.686 71.29-3.907 1.343.992 2.64 2.055 3.9 3.172l10.61-11.984c-1.6-1.414-3.257-2.758-5.039-4.086-27.813-20.282-66.053-18.212-91.515 4.953l-157.529 143.203c-1.667 1.518-2.617 3.668-2.617 5.922v96c0 4.418 3.582 8 8 8h432c3.573.002 6.715-2.365 7.7-5.8l32-112c.202-.716.303-1.456.3-2.2v-10.078c-.015-12.101-9.821-21.907-21.922-21.922zm-245.226-15.523 23.721 74.558-79.305-6.62zm-67.874 82.96 96.84 8.084 19.241 60.479h-172.177zm319.022-36.554-30.031 105.117h-35.425c4.529-12.339-1.802-26.014-14.142-30.543-2.69-.987-5.537-1.481-8.402-1.457h-13.781l-35.519-21.312-.038-.119 64.679 5.4c2.347.218 4.668-.631 6.32-2.313l48-48c.883-.88 1.547-1.956 1.938-3.14l4.781-14.43c.827-2.444 3.12-4.088 5.7-4.086 3.268.004 5.917 2.654 5.92 5.922z"/><path d="m472 152v-16h-61.875l-46.773-26.727c-6.047-3.453-12.889-5.27-19.852-5.273h-47.25c-13.099-.044-24.888 7.938-29.711 20.117l-9.969 24.914c-1.422 3.401-.258 7.333 2.787 9.411l-1.912 3.5c-11.53 21.251-13.544 46.384-5.547 69.2l12.563 35.523c1.125 3.195 4.143 5.333 7.531 5.335.469.001.938-.041 1.4-.125l45.515-7.992c4.352-.765 7.259-4.913 6.493-9.265-.06-.339-.141-.673-.243-1.001l-12.242-39.211c-2.257-7.249-2.721-14.938-1.352-22.406h29.257c11.513 10.26 26.384 15.951 41.805 16h57.375c4.418 0 8-3.582 8-8h24v-16h-24v-32zm-174.352 67.18 9.524 30.508-29.891 5.257-10.3-29.125c-5.205-14.94-5.16-31.209.127-46.12 4.147 7.655 12.187 12.388 20.892 12.3h7.354c-1.235 9.119-.451 18.397 2.294 27.18zm84.977-27.18c-12.359-.035-24.205-4.942-32.969-13.656-1.5-1.501-3.534-2.344-5.656-2.344h-56c-4.418.004-8.003-3.575-8.006-7.994 0-.472.041-.942.123-1.406.6-3.7 4.438-6.6 8.742-6.6h47.141c4.418-.008 7.993-3.596 7.985-8.015-.007-3.661-2.497-6.85-6.047-7.743l-32-8c-2.725-.686-5.609.112-7.594 2.1l-5.656 5.658h-16.868l5.578-13.945c2.41-6.088 8.304-10.078 14.852-10.055h47.25c4.176.001 8.28 1.092 11.906 3.164l48.625 27.781c1.208.693 2.576 1.057 3.969 1.055h24v40z"/></symbol><symbol id="skin-care" viewBox="0 0 60 60"><title>skin-care</title><path id="Shape" d="m55 18v-2c0-1.6568542-1.3431458-3-3-3h-1v-1c-.0044956-1.4225979-.7666478-2.73502389-2-3.444v-2.439l3.883 4.005c1.1812011 1.0919283 3.0133982 1.0579099 4.1532514-.0771135 1.1398533-1.13502334 1.1816514-2.96705944.0947486-4.1528865l-4.867-4.992c-.5667598-.57468105-1.3398609-.89875696-2.147-.9h-15.117c-1.6568542.00000002-3 1.34314577-3 3s1.3431458 2.99999998 3 3h8v2.556c-1.2333522.70897611-1.9955044 2.0214021-2 3.444v1h-1c-1.6568542 0-3 1.3431458-3 3v2c-2.7600532.0033061-4.9966939 2.2399468-5 5v8h-7.355c1.569-17.313 1.355-13.608 1.355-19 0-1.6568542-1.3431458-3-3-3h-20c-1.65685425 0-3 1.3431458-3 3v4.091c3.5 38.495 3 30.343 3 40.909 0 1.6568542 1.34314575 3 3 3h49c2.7600532-.0033061 4.9966939-2.2399468 5-5v-32c-.0033061-2.7600532-2.2399468-4.9966939-5-5zm-21-15c0-.55228475.4477153-1 1-1h15.117c.2693277-.00049973.5274707.10766076.716.3l4.875 5c.2810813.28674523.3633909.71380736.2090167 1.0844799-.1543742.37067255-.5154903.61306092-.9170167.6155201-.2613545.00281385-.5131332-.09825729-.7-.281l-4.273-4.419c-.1887717-.19258788-.4473256-.30076943-.717-.3h-14.31c-.2652165 0-.5195704-.10535684-.7071068-.29289322s-.2928932-.44189029-.2928932-.70710678zm11 3h2v2h-2zm-2 6c0-1.1045695.8954305-2 2-2h2c1.1045695 0 2 .8954305 2 2v1h-6zm-4 4c0-.5522847.4477153-1 1-1h12c.5522847 0 1 .4477153 1 1v2h-14zm3 22v-3c0-2.209139-1.790861-4-4-4v-7h16v30h-9v-13c0-1.6568542-1.3431458-3-3-3zm-4-5c1.1045695 0 2 .8954305 2 2v3h-20v-3c0-1.1045695.8954305-2 2-2zm-36-21c0-.5522847.44771525-1 1-1h1v2c0 .5522847.44771525 1 1 1s1-.4477153 1-1v-2h2v2c0 .5522847.44771525 1 1 1s1-.4477153 1-1v-2h2v2c0 .5522847.4477153 1 1 1s1-.4477153 1-1v-2h2v2c0 .5522847.4477153 1 1 1s1-.4477153 1-1v-2h2v2c0 .5522847.4477153 1 1 1s1-.4477153 1-1v-2h1c.5522847 0 1 .4477153 1 1v3h-22zm21.905 5-1.269 14h-.636c-2.209139 0-4 1.790861-4 4v3c-1.6568542 0-3 1.3431458-3 3v7h-10.087l-2.813-31zm-18.905 33h10v4.088c-.581 1.251-3.528 1.145-3.964.073-.3127178-.7204525-1.0308248-1.1795506-1.816-1.161h-4.22zm12-5h14c.5522847 0 1 .4477153 1 1v6c0 .5522847-.4477153 1-1 1h-14zm-12 12v-2h4.222c.778 1.72 3.532 2.557 5.778 1.6-.0347842.4743315.0278328.9507649.184 1.4h-9.184c-.55228475 0-1-.4477153-1-1zm13 1c-.5522847 0-1-.4477153-1-1v-2h14c1.6568542 0 3-1.3431458 3-3v-6c0-1.6568542-1.3431458-3-3-3h-14v-2c0-.5522847.4477153-1 1-1h24c.5522847 0 1 .4477153 1 1v16c0 .5522847-.4477153 1-1 1zm40-3c0 1.6568542-1.3431458 3-3 3h-10.184c.1939027-.6477625.2564599-1.3277321.184-2h10c.5522847 0 1-.4477153 1-1v-32c0-.5522847-.4477153-1-1-1h-18c-.5522847 0-1 .4477153-1 1v8h-2v-8c0-1.6568542 1.3431458-3 3-3h18c1.6568542 0 3 1.3431458 3 3z"/><path id="Shape" d="m7 45c.28024393.0009671.54803375-.115705.73815035-.3216012.1901166-.2058963.2851117-.4821203.26184965-.7613988l-1.67-20c-.01764693-.2669357-.14289321-.5152744-.34705585-.6881434-.20416263-.172869-.46975179-.2554593-.73594415-.2288566-.54992575.0461303-.95852814.5290241-.913 1.079l1.67 20c.04118345.5196828.47468815.920544.996.921z"/><circle id="Oval" cx="5" cy="20" r="1"/></symbol></svg>